<?xml version="1.0" encoding="utf-8"?>
<!-- Generator: Adobe Illustrator 25.2.1, SVG Export Plug-In . SVG Version: 6.00 Build 0)  -->
<svg version="1.1" id="Layer_1" xmlns="http://www.w3.org/2000/svg" xmlns:xlink="http://www.w3.org/1999/xlink" x="0px" y="0px"
	 viewBox="0 0 56.7 56.7" style="enable-background:new 0 0 56.7 56.7;" xml:space="preserve">
<style type="text/css">
	.st0{fill:url(#SVGID_1_);}
</style>
<linearGradient id="SVGID_1_" gradientUnits="userSpaceOnUse" x1="8.7549" y1="27.9277" x2="48.9251" y2="27.9277">
	<stop  offset="1.104800e-03" style="stop-color:#FFE185"/>
	<stop  offset="0.2094" style="stop-color:#FFBB36"/>
	<stop  offset="0.3765" style="stop-color:#FF5176"/>
	<stop  offset="0.5238" style="stop-color:#F63395"/>
	<stop  offset="0.7394" style="stop-color:#A436D2"/>
	<stop  offset="1" style="stop-color:#5F4EED"/>
</linearGradient>
<path class="st0" d="M44.5,39.7c-0.6,1.8-2.1,3.1-3.8,3.9c-2.7,1.1-9,0.8-11.8,0.8c-3,0-9.2,0.3-11.8-0.8c-1.8-0.7-3.1-2.1-3.9-3.9
	c-1.1-2.6-0.8-8.9-0.8-11.8c0-2.9-0.3-9.1,0.8-11.8c0.7-1.7,2.1-3,3.9-3.8c2.6-1.1,8.9-0.8,11.8-0.8c2.9,0,9.1-0.3,11.8,0.8
	c1.7,0.6,3,2.1,3.8,3.8c1.1,2.7,0.8,9,0.8,11.8C45.3,30.8,45.6,37.1,44.5,39.7z M48.8,19.6c-0.2-3.2-0.9-6.1-3.2-8.4
	c-2.3-2.3-5.2-3-8.4-3.2c-3.3-0.2-13.3-0.2-16.6,0c-3.2,0.2-6,0.9-8.4,3.2c-2.3,2.3-3,5.2-3.2,8.4c-0.2,3.3-0.2,13.3,0,16.6
	c0.2,3.2,0.9,6,3.2,8.4c2.4,2.3,5.2,3,8.4,3.2c3.3,0.2,13.3,0.2,16.6,0c3.2-0.2,6.1-0.9,8.4-3.2c2.3-2.4,3-5.2,3.2-8.4
	C49,32.9,49,23,48.8,19.6z M42,17.2c0-1.3-1.1-2.4-2.4-2.4s-2.4,1.1-2.4,2.4s1.1,2.4,2.4,2.4S42,18.6,42,17.2z M28.9,34.6
	c-3.7,0-6.7-3-6.7-6.7c0-3.7,3-6.6,6.7-6.6c3.7,0,6.6,3,6.6,6.6C35.5,31.6,32.6,34.6,28.9,34.6z M28.9,17.6
	c-5.7,0-10.3,4.7-10.3,10.3c0,5.7,4.6,10.3,10.3,10.3c5.6,0,10.3-4.6,10.3-10.3C39.2,22.2,34.5,17.6,28.9,17.6z"/>
</svg>
